<svg xmlns="http://www.w3.org/2000/svg" xmlns:xlink="http://www.w3.org/1999/xlink" width="256" height="256" version="1"><defs><linearGradient id="a"><stop offset="0" stop-color="#fff"/><stop offset="1" stop-color="#fff" stop-opacity="0"/></linearGradient><linearGradient xlink:href="#a" id="b" gradientUnits="userSpaceOnUse" gradientTransform="matrix(-.59146 0 0 .59146 210.022 142.232)" x1="-344.153" y1="274.711" x2="-395.849" y2="425.4"/></defs><g transform="translate(-373.642 -318.344)"><rect transform="scale(-1 1)" ry="35.488" rx="35.488" y="328.849" x="-619.146" height="234.99" width="235.008" fill="#f57d00" fill-rule="evenodd"/><path d="M557.057 338.895h-110.83c-29.337 0-52.954 23.81-52.954 53.385v108.128c.95 23.086 4.602 8.491 11.555-17.075 8.08-29.713 34.396-55.683 66.444-75.146 24.462-14.855 51.841-24.341 101.68-25.243 28.265-.512 25.77-36.683-15.895-44.049z" fill="url(#b)" fill-rule="evenodd"/><path d="M474.288 392.94l34.103-.525c15.616.432 24.295 11.501 24.134 24.13 1.514 14.923-2.688 31.821-26.233 31.474h-33.577c-14.805.143-26.627-8.557-25.708-25.704-.734-14.206 3.957-29.58 27.281-29.376zM529.377 508.345h-52.465c-21.862.28-32.393-9.687-30.955-32.524.104-20.528 12.011-26.39 29.905-26.753h51.941c35.317-.942 31.46-1.284 32.004 27.278-.222 20.765-11.642 31.84-30.43 31.999z" fill="#fff" fill-rule="evenodd" stroke="#fff" stroke-width="30"/><path d="M445.957 480.018l1.05-62.948" fill="none" stroke="#fff" stroke-width="30"/><path d="M476.783 419.905l29.29.466M473.455 477.187h58.582" fill="none" stroke="#f57d00" stroke-width="25" stroke-linecap="round"/></g></svg>