<svg xmlns="http://www.w3.org/2000/svg" width="79.37" height="79.37" viewBox="0 0 79.37 79.37"><path fill="#DD4B38" d="M70.91 1.935h-62c-3.866 0-7.5 1.5-7.5 6.5v64.643c0 3.866 3.634 4.857 7.5 4.857h62c3.866 0 6.5-.991 6.5-4.857V8.435c0-5-2.634-6.5-6.5-6.5z"/><path fill="#FFF" d="M57.91 7.435h6v14h14.05v5.877H63.91v14.123h-6V27.312h-14v-5.877h14z"/><linearGradient id="a" gradientUnits="userSpaceOnUse" x1="23.516" y1="77.435" x2="23.516" y2="7.436"><stop offset="0" stop-color="#f2f2f2"/><stop offset=".241" stop-color="#f6f6f6"/><stop offset="1" stop-color="#fff"/></linearGradient><path fill="url(#a)" d="M33.71 55.495l-3.979-3.096c-1.212-.999-2.867-2.328-2.867-4.763 0-2.441 1.655-3.996 3.09-5.434 4.637-3.65 8.957-7.535 8.957-15.732 0-7.483-4.043-11.686-6.753-14.035h6.765l6.198-5H21.787c-5.789.107-12.693.977-18.986 6.186-.295.254-.614.549-.891.814v27c3.026 2.516 7.139 4.425 12.148 4.425 1.106 0 2.316-.114 3.533-.223-.551 1.331-1.104 2.44-1.104 4.324 0 3.432 1.764 5.533 3.312 7.531-4.219.286-12.889-.432-17.889 3.568v6.375c2.278-3.097 5.918-4.481 7.513-5.064 4.636-1.553 10.599-1.775 11.597-1.775 1.098 0 1.65 0 2.53.114 8.395 5.985 14.409 9.064 14.472 14.726.012 1.097-.299 1.438-.463 2h6.463c.666-1.556.889-3.396.889-5.444-.001-7.648-6.347-12.396-11.201-16.497zm-14.087-14.06c-9.495 0-13.393-10.977-13.393-18.396 0-2.887.289-5.873 2.166-8.201 1.77-2.216 4.857-3.656 7.73-3.656 9.158 0 13.783 12.408 13.783 20.387 0 1.598-.812 4.722-2.884 7.095-1.815 2.069-4.644 2.771-7.402 2.771z"/></svg>